<?xml version="1.0" encoding="UTF-8"?>
<svg width="129px" height="28px" viewBox="0 0 129 28" version="1.1" xmlns="http://www.w3.org/2000/svg" xmlns:xlink="http://www.w3.org/1999/xlink">
    <title>E3BAB708-6563-473C-A5FB-58DE1C9153E2</title>
    <defs>
        <polygon id="path-1" points="0 28 127.898378 28 127.898378 0.0926382979 0 0.0926382979"></polygon>
    </defs>
    <g id="Page-1" stroke="none" stroke-width="1" fill="white" fill-rule="evenodd">
        <g id="Logos-sponsors" transform="translate(-275.000000, -153.000000)">
            <g id="Group-31" transform="translate(276.000000, 153.000000)">
                <polygon id="Fill-1" fill="#FFFFFF" points="62.5 27.8803188 67.7475273 19.9613598 63.2524727 13.2392133 64.7376363 13 68.5821709 18.8442353 72.3239919 13.1204274 73.8704793 13.1204274 69.3347958 19.9613598 74.5 27.7607867 73.0763125 28 68.5208471 21.0784842 63.9851636 27.8803188"></polygon>
                <g id="Group-30" transform="translate(-0.500000, 0.000000)">
                    <path d="M81.8352577,21.3908681 C81.7009153,19.400634 80.7759423,17.9072511 78.9643387,17.9072511 C77.5011315,17.9072511 76.1131676,19.0424426 75.8821045,21.3908681 L81.8352577,21.3908681 Z M74.5334919,22.1875277 C74.5334919,18.4846766 76.845564,16.7525489 78.9840865,16.7525489 C81.334645,16.7525489 83.1265009,18.6243787 83.1265009,22.2068894 L83.1265009,22.4660383 L75.8623568,22.4660383 C75.8821045,25.0344426 77.3076901,26.5074213 79.1962667,26.5074213 C80.5448793,26.5074213 81.5083387,25.9699106 82.4521946,24.9549106 L83.1068973,25.8506128 C81.9893477,27.0645915 80.8725189,27.6621234 79.1766631,27.6621234 C76.6145009,27.6621234 74.5334919,25.7709319 74.5334919,22.1875277 L74.5334919,22.1875277 Z" id="Fill-2" fill="#FFFFFF"></path>
                    <path d="M85.4354162,27.4429191 L85.4354162,16.9718128 L86.6299387,16.9718128 L86.7651459,18.6244085 C87.767236,17.5890043 89.0584793,16.7525787 90.5995243,16.7525787 C92.6413261,16.7525787 93.6630198,17.8877702 93.6630198,19.8382383 L93.6630198,27.4429191 L92.3332901,27.4429191 L92.3332901,20.1168979 C92.3332901,18.6437702 91.7163532,17.9072809 90.2907676,17.9072809 C89.000245,17.9072809 87.9015784,18.6040043 86.7651459,19.7384511 L86.7651459,27.4429191 L85.4354162,27.4429191 Z" id="Fill-4" fill="#FFFFFF"></path>
                    <path d="M103.185975,21.3908681 C103.050768,19.400634 102.125795,17.9072511 100.315056,17.9072511 C98.8509838,17.9072511 97.4630198,19.0424426 97.2319568,21.3908681 L103.185975,21.3908681 Z M95.8833441,22.1875277 C95.8833441,18.4846766 98.1954162,16.7525489 100.333939,16.7525489 C102.684497,16.7525489 104.476497,18.6243787 104.476497,22.2068894 L104.476497,22.4660383 L97.2130739,22.4660383 C97.2319568,25.0344426 98.6575423,26.5074213 100.546119,26.5074213 C101.894732,26.5074213 102.858335,25.9699106 103.802047,24.9549106 L104.457614,25.8506128 C103.340065,27.0645915 102.222371,27.6621234 100.527236,27.6621234 C97.9644973,27.6621234 95.8833441,25.7709319 95.8833441,22.1875277 L95.8833441,22.1875277 Z" id="Fill-6" fill="#FFFFFF"></path>
                    <mask id="mask-2" fill="white">
                        <use xlink:href="#path-1"></use>
                    </mask>
                    <g id="Clip-9"></g>
                    <path d="M106.818018,27.4429787 L108.147892,27.4429787 L108.147892,16.9718723 L106.818018,16.9718723 L106.818018,27.4429787 Z M106.664072,13.7862766 C106.664072,13.2690213 106.972973,12.9505957 107.473441,12.9505957 C107.974919,12.9505957 108.282955,13.2690213 108.282955,13.7862766 C108.282955,14.3237872 107.974919,14.6624681 107.473441,14.6624681 C106.972973,14.6624681 106.664072,14.3237872 106.664072,13.7862766 L106.664072,13.7862766 Z" id="Fill-8" fill="#FFFFFF" mask="url(#mask-2)"></path>
                    <polygon id="Fill-10" fill="#FFFFFF" mask="url(#mask-2)" points="110.129744 27.4429191 110.129744 26.5667277 116.31396 18.1062596 110.727077 18.1062596 110.534501 16.9718128 117.990357 16.9718128 117.990357 17.8471106 111.805996 26.3077277 118.16405 26.3077277 118.356627 27.4429191"></polygon>
                    <path d="M126.60715,21.3908681 C126.471942,19.400634 125.54769,17.9072511 123.737095,17.9072511 C122.272159,17.9072511 120.884915,19.0424426 120.653996,21.3908681 L126.60715,21.3908681 Z M119.305384,22.1875277 C119.305384,18.4846766 121.617456,16.7525489 123.755834,16.7525489 C126.106537,16.7525489 127.898393,18.6243787 127.898393,22.2068894 L127.898393,22.4660383 L120.634249,22.4660383 C120.653996,25.0344426 122.079582,26.5074213 123.968014,26.5074213 C125.316627,26.5074213 126.280231,25.9699106 127.224086,24.9549106 L127.878645,25.8506128 C126.761095,27.0645915 125.644411,27.6621234 123.948411,27.6621234 C121.385528,27.6621234 119.305384,25.7709319 119.305384,22.1875277 L119.305384,22.1875277 Z" id="Fill-11" fill="#FFFFFF" mask="url(#mask-2)"></path>
                    <polygon id="Fill-12" fill="#FFFFFF" mask="url(#mask-2)" points="2.62165045 7.93228085 2.62165045 0.634110638 0.148425225 0.634110638 0.148425225 0.149919149 5.56291171 0.149919149 5.6444973 0.634110638 3.13047928 0.634110638 3.13047928 7.93228085"></polygon>
                    <polygon id="Stroke-13" stroke="#FFFFFF" stroke-width="0.768" mask="url(#mask-2)" points="2.62165045 7.93228085 2.62165045 0.634110638 0.148425225 0.634110638 0.148425225 0.149919149 5.56291171 0.149919149 5.6444973 0.634110638 3.13047928 0.634110638 3.13047928 7.93228085"></polygon>
                    <path d="M8.96687568,6.61753191 L8.96687568,4.71368085 C6.36147027,5.18774468 5.78085766,5.84976596 5.78085766,6.62765957 C5.78085766,7.2482766 6.17826306,7.58517021 6.83945225,7.58517021 C7.6333982,7.58517021 8.35599279,7.22712766 8.96687568,6.61753191 M5.29264144,6.65908511 C5.29264144,5.60759574 6.15779459,4.81853191 8.96687568,4.33523404 L8.96687568,3.99908511 C8.96687568,3.15774468 8.53963243,2.73685106 7.80622703,2.73685106 C6.92103784,2.73685106 6.33062342,3.09504255 5.73011892,3.65206383 L5.44543423,3.33631915 C6.10705586,2.70557447 6.78871351,2.29585106 7.81689369,2.29585106 C8.92622703,2.29585106 9.45566847,2.94774468 9.45566847,3.96706383 L9.45566847,7.93234043 L9.02784865,7.93234043 L8.96687568,7.11110638 C8.31548829,7.69017021 7.60312793,8.02617021 6.79894775,8.02617021 C5.82193874,8.02617021 5.29264144,7.50057447 5.29264144,6.65908511" id="Fill-14" fill="#FFFFFF" mask="url(#mask-2)"></path>
                    <path d="M8.96687568,6.61753191 L8.96687568,4.71368085 C6.36147027,5.18774468 5.78085766,5.84976596 5.78085766,6.62765957 C5.78085766,7.2482766 6.17826306,7.58517021 6.83945225,7.58517021 C7.6333982,7.58517021 8.35599279,7.22712766 8.96687568,6.61753191 Z M5.29264144,6.65908511 C5.29264144,5.60759574 6.15779459,4.81853191 8.96687568,4.33523404 L8.96687568,3.99908511 C8.96687568,3.15774468 8.53963243,2.73685106 7.80622703,2.73685106 C6.92103784,2.73685106 6.33062342,3.09504255 5.73011892,3.65206383 L5.44543423,3.33631915 C6.10705586,2.70557447 6.78871351,2.29585106 7.81689369,2.29585106 C8.92622703,2.29585106 9.45566847,2.94774468 9.45566847,3.96706383 L9.45566847,7.93234043 L9.02784865,7.93234043 L8.96687568,7.11110638 C8.31548829,7.69017021 7.60312793,8.02617021 6.79894775,8.02617021 C5.82193874,8.02617021 5.29264144,7.50057447 5.29264144,6.65908511 Z" id="Stroke-15" stroke="#FFFFFF" stroke-width="0.768" mask="url(#mask-2)"></path>
                    <path d="M10.8976144,7.93228085 L10.8976144,2.41106809 L11.3252901,2.41106809 L11.3862631,3.56740851 L11.4064432,3.56740851 C11.8545874,2.84194043 12.536245,2.29594043 13.6050739,2.29594043 L13.6758486,2.29594043 L13.7169297,2.76821702 L13.493218,2.76821702 C12.5869838,2.76821702 11.8238847,3.31511064 11.3862631,4.29377021 L11.3862631,7.93228085 L10.8976144,7.93228085 Z" id="Fill-16" fill="#FFFFFF" mask="url(#mask-2)"></path>
                    <path d="M10.8976144,7.93228085 L10.8976144,2.41106809 L11.3252901,2.41106809 L11.3862631,3.56740851 L11.4064432,3.56740851 C11.8545874,2.84194043 12.536245,2.29594043 13.6050739,2.29594043 L13.6758486,2.29594043 L13.7169297,2.76821702 L13.493218,2.76821702 C12.5869838,2.76821702 11.8238847,3.31511064 11.3862631,4.29377021 L11.3862631,7.93228085 L10.8976144,7.93228085 Z" id="Stroke-17" stroke="#FFFFFF" stroke-width="0.768" mask="url(#mask-2)"></path>
                    <path d="M14.5898378,0.675574468 C14.5898378,0.444425532 14.7119279,0.318276596 14.9052252,0.318276596 C15.0884324,0.318276596 15.2211892,0.444425532 15.2211892,0.675574468 C15.2211892,0.907468085 15.0884324,1.04389362 14.9052252,1.04389362 C14.7119279,1.04389362 14.5898378,0.907468085 14.5898378,0.675574468 M13.8979459,10.0140213 L13.8472072,9.562 C13.9384505,9.58314894 14.0405045,9.59312766 14.1723964,9.59312766 C14.4575135,9.59312766 14.6611892,9.41455319 14.6611892,9.01510638 L14.6611892,2.41097872 L15.1498378,2.41097872 L15.1498378,8.95151064 C15.1498378,9.6982766 14.8237838,10.0351702 14.1723964,10.0351702 C14.1118559,10.0351702 13.9586306,10.0248936 13.8979459,10.0140213" id="Fill-18" fill="#FFFFFF" mask="url(#mask-2)"></path>
                    <path d="M14.5898378,0.675574468 C14.5898378,0.444425532 14.7119279,0.318276596 14.9052252,0.318276596 C15.0884324,0.318276596 15.2211892,0.444425532 15.2211892,0.675574468 C15.2211892,0.907468085 15.0884324,1.04389362 14.9052252,1.04389362 C14.7119279,1.04389362 14.5898378,0.907468085 14.5898378,0.675574468 Z M13.8979459,10.0140213 L13.8472072,9.562 C13.9384505,9.58314894 14.0405045,9.59312766 14.1723964,9.59312766 C14.4575135,9.59312766 14.6611892,9.41455319 14.6611892,9.01510638 L14.6611892,2.41097872 L15.1498378,2.41097872 L15.1498378,8.95151064 C15.1498378,9.6982766 14.8237838,10.0351702 14.1723964,10.0351702 C14.1118559,10.0351702 13.9586306,10.0248936 13.8979459,10.0140213 Z" id="Stroke-19" stroke="#FFFFFF" stroke-width="0.768" mask="url(#mask-2)"></path>
                    <path d="M20.2255279,4.77714255 C20.1543207,3.64195106 19.6348252,2.73686596 18.6073658,2.73686596 C17.7724829,2.73686596 16.9785369,3.40990851 16.846645,4.77714255 L20.2255279,4.77714255 Z M16.3477622,5.16571702 C16.3477622,3.25248298 17.477564,2.29586596 18.6171676,2.29586596 C19.8794378,2.29586596 20.7343568,3.38875957 20.7343568,5.12431277 L20.7343568,5.19788723 L16.8359784,5.19788723 C16.8359784,6.70139787 17.6401586,7.60544043 18.7187892,7.60544043 C19.4415279,7.60544043 19.9301766,7.32186596 20.4492396,6.73356809 L20.7343568,7.05854681 C20.1543207,7.7214617 19.6147892,8.04748298 18.7294559,8.04748298 C17.3961225,8.04748298 16.3477622,6.98586596 16.3477622,5.16571702 L16.3477622,5.16571702 Z" id="Fill-20" fill="#FFFFFF" mask="url(#mask-2)"></path>
                    <path d="M20.2255279,4.77714255 C20.1543207,3.64195106 19.6348252,2.73686596 18.6073658,2.73686596 C17.7724829,2.73686596 16.9785369,3.40990851 16.846645,4.77714255 L20.2255279,4.77714255 Z M16.3477622,5.16571702 C16.3477622,3.25248298 17.477564,2.29586596 18.6171676,2.29586596 C19.8794378,2.29586596 20.7343568,3.38875957 20.7343568,5.12431277 L20.7343568,5.19788723 L16.8359784,5.19788723 C16.8359784,6.70139787 17.6401586,7.60544043 18.7187892,7.60544043 C19.4415279,7.60544043 19.9301766,7.32186596 20.4492396,6.73356809 L20.7343568,7.05854681 C20.1543207,7.7214617 19.6147892,8.04748298 18.7294559,8.04748298 C17.3961225,8.04748298 16.3477622,6.98586596 16.3477622,5.16571702 Z" id="Stroke-21" stroke="#FFFFFF" stroke-width="0.768" mask="url(#mask-2)"></path>
                    <path d="M22.1206631,6.70138298 L22.1206631,2.86314894 L21.1841586,2.86314894 L21.1841586,2.41097872 L22.1206631,2.41097872 L22.1206631,0.444425532 L22.6090234,0.360574468 L22.6090234,2.41097872 L24.0034739,2.41097872 L24.0034739,2.86314894 L22.6090234,2.86314894 L22.6090234,6.62765957 C22.6090234,7.21685106 22.8023207,7.553 23.4741766,7.553 C23.6674739,7.553 23.8511135,7.53274468 23.9936721,7.47942553 L24.0644468,7.95259574 C23.8813838,7.98476596 23.6674739,8.00502128 23.4335279,8.00502128 C22.5483387,8.00502128 22.1206631,7.63774468 22.1206631,6.70138298" id="Fill-22" fill="#FFFFFF" mask="url(#mask-2)"></path>
                    <path d="M22.1206631,6.70138298 L22.1206631,2.86314894 L21.1841586,2.86314894 L21.1841586,2.41097872 L22.1206631,2.41097872 L22.1206631,0.444425532 L22.6090234,0.360574468 L22.6090234,2.41097872 L24.0034739,2.41097872 L24.0034739,2.86314894 L22.6090234,2.86314894 L22.6090234,6.62765957 C22.6090234,7.21685106 22.8023207,7.553 23.4741766,7.553 C23.6674739,7.553 23.8511135,7.53274468 23.9936721,7.47942553 L24.0644468,7.95259574 C23.8813838,7.98476596 23.6674739,8.00502128 23.4335279,8.00502128 C22.5483387,8.00502128 22.1206631,7.63774468 22.1206631,6.70138298 Z" id="Stroke-23" stroke="#FFFFFF" stroke-width="0.768" mask="url(#mask-2)"></path>
                    <path d="M28.4642739,6.61753191 L28.4642739,4.71368085 C25.8588685,5.18774468 25.2782559,5.84976596 25.2782559,6.62765957 C25.2782559,7.2482766 25.6756613,7.58517021 26.3368505,7.58517021 C27.1307964,7.58517021 27.853391,7.22712766 28.4642739,6.61753191 M24.7900396,6.65908511 C24.7900396,5.60759574 25.6551928,4.81853191 28.4642739,4.33523404 L28.4642739,3.99908511 C28.4642739,3.15774468 28.0370306,2.73685106 27.3036252,2.73685106 C26.418436,2.73685106 25.8280216,3.09504255 25.2275171,3.65206383 L24.9428324,3.33631915 C25.6044541,2.70557447 26.2861117,2.29585106 27.3142919,2.29585106 C28.4237694,2.29585106 28.9529225,2.94774468 28.9529225,3.96706383 L28.9529225,7.93234043 L28.5252468,7.93234043 L28.4642739,7.11110638 C27.8128865,7.69017021 27.1005261,8.02617021 26.2963459,8.02617021 C25.3193369,8.02617021 24.7900396,7.50057447 24.7900396,6.65908511" id="Fill-24" fill="#FFFFFF" mask="url(#mask-2)"></path>
                    <path d="M28.4642739,6.61753191 L28.4642739,4.71368085 C25.8588685,5.18774468 25.2782559,5.84976596 25.2782559,6.62765957 C25.2782559,7.2482766 25.6756613,7.58517021 26.3368505,7.58517021 C27.1307964,7.58517021 27.853391,7.22712766 28.4642739,6.61753191 Z M24.7900396,6.65908511 C24.7900396,5.60759574 25.6551928,4.81853191 28.4642739,4.33523404 L28.4642739,3.99908511 C28.4642739,3.15774468 28.0370306,2.73685106 27.3036252,2.73685106 C26.418436,2.73685106 25.8280216,3.09504255 25.2275171,3.65206383 L24.9428324,3.33631915 C25.6044541,2.70557447 26.2861117,2.29585106 27.3142919,2.29585106 C28.4237694,2.29585106 28.9529225,2.94774468 28.9529225,3.96706383 L28.9529225,7.93234043 L28.5252468,7.93234043 L28.4642739,7.11110638 C27.8128865,7.69017021 27.1005261,8.02617021 26.2963459,8.02617021 C25.3193369,8.02617021 24.7900396,7.50057447 24.7900396,6.65908511 Z" id="Stroke-25" stroke="#FFFFFF" stroke-width="0.768" mask="url(#mask-2)"></path>
                    <path d="M41.0399279,12.7476255 L36.1396036,22.3860298 C36.0332252,22.5948383 35.7312432,22.5948383 35.6247207,22.3861787 L30.7203604,12.7473277 C30.6712072,12.6511149 30.5746306,12.5907957 30.4692613,12.5907957 L28.0990991,12.5907957 C27.9380901,12.5907957 27.8354595,12.7681787 27.9112793,12.9147319 L35.6316396,27.8451362 C35.7387387,28.0515617 36.0251532,28.0515617 36.1322523,27.8451362 L43.853045,12.9150298 C43.929009,12.7684766 43.8262342,12.5910936 43.6653694,12.5910936 L41.291027,12.5910936 C41.1858018,12.5910936 41.0890811,12.6514128 41.0399279,12.7476255" id="Fill-26" fill="#FFFFFF" mask="url(#mask-2)"></path>
                    <path d="M43.8217514,25.6092915 L48.7219315,15.9707383 C48.8284541,15.7620787 49.130436,15.7620787 49.2369586,15.9707383 L54.1411748,25.6095894 C54.1904721,25.7058021 54.2870486,25.7661213 54.3922739,25.7661213 L56.7625802,25.7661213 C56.9235892,25.7661213 57.0262198,25.5887383 56.9502559,25.4420362 L49.2300396,10.5117809 C49.1229405,10.3053553 48.836382,10.3053553 48.729427,10.5117809 L41.0086342,25.4418872 C40.9326703,25.5884404 41.035445,25.7658234 41.1963099,25.7658234 L43.5705081,25.7658234 C43.6758775,25.7658234 43.7725982,25.7055043 43.8217514,25.6092915" id="Fill-27" fill="#FFFFFF" mask="url(#mask-2)"></path>
                    <path d="M7.1659964,25.7658681 L2.74812252,25.766017 C2.59129369,25.766017 2.46415856,25.6346553 2.46415856,25.4727617 L2.46401441,21.3796979 C2.46401441,21.2176553 2.59114955,21.0862936 2.74797838,21.0862936 L7.1659964,21.0862936 C9.27165405,21.0862936 10.2119063,21.7031872 10.2119063,23.4262298 C10.2119063,25.1491234 9.29197838,25.7658681 7.1659964,25.7658681 M2.75086126,14.8189106 L7.10718559,14.8189106 C8.71295135,14.8189106 9.53053694,15.5290383 9.53053694,16.8368468 C9.53053694,18.1504638 8.71597838,18.8544851 7.10718559,18.8544851 L2.75086126,18.854634 C2.59403243,18.854634 2.4668973,18.7232723 2.4668973,18.5610809 L2.4668973,15.1123149 C2.4668973,14.9502723 2.59403243,14.8189106 2.75086126,14.8189106 M10.3352937,19.7011872 C11.3578523,19.1727617 11.9971315,18.0281872 11.9971315,16.6192511 C11.9971315,14.2198894 10.1861045,12.5908255 7.62956396,12.5908255 L0.283978378,12.5908255 C0.12714955,12.5908255 1.44144144e-05,12.7221872 1.44144144e-05,12.8842298 L1.44144144e-05,27.7063574 C1.44144144e-05,27.8685489 0.12714955,27.9999106 0.283978378,27.9999106 L7.30754595,27.9999106 C10.822645,27.9999106 12.6761946,26.4369745 12.6761946,23.3772298 C12.6761946,20.390017 10.3352937,19.7011872 10.3352937,19.7011872" id="Fill-28" fill="#FFFFFF" mask="url(#mask-2)"></path>
                    <path d="M22.2346811,25.7658681 L17.8168072,25.766017 C17.6599784,25.766017 17.5328432,25.6346553 17.5328432,25.4727617 L17.5326991,21.3796979 C17.5326991,21.2176553 17.6598342,21.0862936 17.8166631,21.0862936 L22.2346811,21.0862936 C24.3403387,21.0862936 25.280591,21.7031872 25.280591,23.4262298 C25.280591,25.1491234 24.3606631,25.7658681 22.2346811,25.7658681 M17.8195459,14.8189106 L22.1758703,14.8189106 C23.781636,14.8189106 24.5992216,15.5290383 24.5992216,16.8368468 C24.5992216,18.1504638 23.7846631,18.8544851 22.1758703,18.8544851 L17.8195459,18.854634 C17.6627171,18.854634 17.535582,18.7232723 17.535582,18.5610809 L17.535582,15.1123149 C17.535582,14.9502723 17.6627171,14.8189106 17.8195459,14.8189106 M25.4039784,19.7011872 C26.4265369,19.1727617 27.0658162,18.0281872 27.0658162,16.6192511 C27.0658162,14.2198894 25.2547892,12.5908255 22.6982486,12.5908255 L15.3526631,12.5908255 C15.1958342,12.5908255 15.0686991,12.7221872 15.0686991,12.8842298 L15.0686991,27.7063574 C15.0686991,27.8685489 15.1958342,27.9999106 15.3526631,27.9999106 L22.3760865,27.9999106 C25.8913297,27.9999106 27.7448793,26.4369745 27.7448793,23.3772298 C27.7448793,20.390017 25.4039784,19.7011872 25.4039784,19.7011872" id="Fill-29" fill="#FFFFFF" mask="url(#mask-2)"></path>
                </g>
            </g>
        </g>
    </g>
</svg>