<?xml version="1.0" encoding="utf-8"?>
<svg version="1.2" baseProfile="tiny" xmlns="http://www.w3.org/2000/svg" xmlns:xlink="http://www.w3.org/1999/xlink"
	 x="0px" y="0px" viewBox="0 0 25 21" xml:space="preserve">
<path id="Twitter" fill="#FFFFFF" d="M22.1,3.3c1.1-0.7,1.9-1.7,2.3-2.9c-1,0.6-2.1,1-3.3,1.3c-0.9-1-2.3-1.7-3.7-1.7
	c-2.8,0-5.1,2.4-5.1,5.3c0,0.4,0,0.8,0.1,1.2c0.1,0.4-8-2.3-10.6-5.5C1.3,1.8,1,2.7,1,3.6C1,5.5,2,7.1,3.3,8C2.5,8,1.7,7.8,1,7.4
	v0.1c0,2.6,1.8,4.7,4.1,5.2c-0.4,0.1-0.9,0.2-1.4,0.2c-0.3,0-0.7,0-1-0.1c0.7,2.1,2.5,3.6,4.8,3.7c-1.8,1.4-4,2.3-6.4,2.3
	c-0.4,0-0.8,0-1.2-0.1C2.3,20.1,5,21,7.9,21c9.4,0,14.6-8.1,14.6-15.1c0-0.2,0-0.5,0-0.7c1-0.7,1.9-1.7,2.6-2.7
	C24.1,2.9,23.1,3.2,22.1,3.3z"/>
</svg>
