<?xml version="1.0" encoding="UTF-8"?>
<svg width="126px" height="53px" viewBox="0 0 126 53" version="1.1" xmlns="http://www.w3.org/2000/svg" xmlns:xlink="http://www.w3.org/1999/xlink">
    <title>1CC729BE-5E87-481F-B432-EC8AC65C3988</title>
    <defs>
        <path d="M7.75444898,0 L7.02367347,0 C6.29289796,1.8397037 5.28195918,5.22666667 2.80946939,10.8121481 L2.80946939,10.8121481 L0,17.165037 L1.0677551,17.165037 L2.13355102,17.165037 C2.4724898,15.6820741 3.20130612,13.7801481 3.87526531,11.9383704 L3.87526531,11.9383704 L6.68669388,11.9383704 L9.49616327,11.9383704 L10.5639184,14.5517037 L11.7433469,17.165037 L13.4850612,17.165037 L15.2267755,17.165037 C14.1609796,14.9084444 12.7562449,11.1688889 11.6865306,8.9682963 L11.6865306,8.9682963 C10.9577143,6.7117037 9.55102041,3.38696296 8.48522449,0 L8.48522449,0 L7.75444898,0 Z M6.79836735,4.45511111 L8.93387755,10.4554074 L6.79836735,10.4554074 L4.32587755,10.4554074 L6.79836735,4.45511111 Z" id="path-1"></path>
        <path d="M18.432,0.356740741 L16.6902857,0.356740741 C17.0253061,2.61333333 17.0253061,4.45511111 17.0253061,5.94014815 L17.0253061,5.94014815 C17.0253061,10.0385185 17.0253061,14.1368889 16.6902857,17.165037 L16.6902857,17.165037 L18.432,17.165037 L20.1737143,17.165037 C19.8367347,15.3253333 19.8367347,12.712 19.8367347,8.9682963 L19.8367347,8.9682963 C19.8367347,6.35703704 19.8367347,2.25659259 20.1737143,0.356740741 L20.1737143,0.356740741 L18.432,0.356740741 Z" id="path-3"></path>
        <path d="M26.5802449,0.77362963 L24.1057959,0.77362963 L24.1057959,7.48325926 C24.1057959,12.3552593 24.1057959,12.712 23.7688163,17.5819259 L23.7688163,17.5819259 L25.5105306,17.5819259 L26.9172245,17.5819259 L26.9172245,13.1268148 L26.9172245,9.74192593 L27.6460408,9.74192593 C29.0507755,11.5837037 30.4574694,13.8402963 31.5232653,15.7422222 L31.5232653,15.7422222 C31.8622041,16.5117037 32.256,17.2251852 32.5929796,17.5819259 L32.5929796,17.5819259 L34.3346939,17.5819259 L36.4702041,17.5819259 C35.0635102,15.7422222 34.3346939,14.6118519 32.5929796,11.9985185 L32.5929796,11.9985185 C32.256,11.6417778 31.8622041,10.5134815 31.5232653,10.1588148 L31.5232653,10.1588148 L31.1862857,8.9682963 C33.3217959,8.61362963 35.0635102,7.12651852 35.0635102,4.51525926 L35.0635102,4.51525926 C35.0635102,3.38696296 34.7284898,2.67348148 33.9977143,1.89985185 L33.9977143,1.89985185 C32.9299592,0.77362963 31.8622041,0.77362963 30.4574694,0.77362963 L30.4574694,0.77362963 L26.5802449,0.77362963 Z M27.3090612,1.48503704 L29.0507755,1.48503704 C29.781551,1.48503704 30.4574694,1.48503704 31.1862857,2.25659259 L31.1862857,2.25659259 C31.9170612,3.03022222 32.256,3.74162963 32.256,4.872 L32.256,4.872 C32.256,6.35703704 31.5232653,8.25688889 29.0507755,8.25688889 L29.0507755,8.25688889 L27.3090612,8.25688889 L27.3090612,1.48503704 Z" id="path-5"></path>
        <path d="M48.6073469,0.296592593 L47.5395918,0.296592593 C46.8088163,3.26666667 44.3363265,10.3952593 43.9993469,11.1087407 L43.9993469,11.1087407 L43.6623673,12.5917037 L43.156898,11.5837037 C42.0891429,8.19674074 40.6844082,3.38696296 39.9536327,0.356740741 L39.9536327,0.356740741 L38.2119184,0.356740741 L36.4702041,0.356740741 C37.5379592,2.97007407 38.2119184,5.22666667 38.9426939,7.06844444 L38.9426939,7.06844444 C40.010449,10.4554074 40.6844082,12.2951111 41.4151837,15.2651852 L41.4151837,15.2651852 L42.144,17.106963 L43.2117551,17.106963 L43.9425306,17.106963 C44.2814694,15.9786667 44.6733061,14.1368889 45.0102857,13.3653333 L45.0102857,13.3653333 C46.0780408,10.3952593 46.0780408,9.97837037 47.1457959,6.65362963 L47.1457959,6.65362963 L47.8765714,4.81185185 C48.213551,5.58340741 48.6073469,6.65362963 48.9443265,7.77985185 L48.9443265,7.77985185 C49.2813061,8.55348148 50.3510204,12.234963 50.6860408,13.0085926 L50.6860408,13.0085926 C51.0230204,14.1368889 51.0230204,14.4936296 52.0927347,17.4637037 L52.0927347,17.4637037 L53.1585306,17.4637037 L54.2282449,17.4637037 C55.2940408,14.4936296 55.2940408,14.0767407 56.3637551,10.3952593 L56.3637551,10.3952593 C57.7665306,6.65362963 58.4973061,4.39496296 59.904,0.713481481 L59.904,0.713481481 L58.8342857,0.713481481 L57.7665306,0.713481481 C57.0357551,4.09837037 56.3637551,5.58340741 56.0248163,7.42518519 L56.0248163,7.42518519 C54.9570612,10.8121481 54.9570612,11.1688889 54.283102,13.0085926 L54.283102,13.0085926 C53.5523265,10.752 52.8783673,8.91022222 52.1475918,6.65362963 L52.1475918,6.65362963 C51.0798367,5.16859259 49.675102,0.296592593 49.675102,0.296592593 L49.675102,0.296592593 L48.6073469,0.296592593 Z" id="path-7"></path>
        <path d="M65.354449,0 L64.6217143,0 C63.892898,1.8397037 62.88,5.22666667 60.4075102,10.8121481 L60.4075102,10.8121481 L57.5980408,17.165037 L58.6657959,17.165037 L59.733551,17.165037 C60.0705306,15.6820741 60.8013061,13.7801481 61.4752653,11.9383704 L61.4752653,11.9383704 L64.2847347,11.9383704 L67.0961633,11.9383704 L68.1619592,14.5517037 L69.3413878,17.165037 L71.0850612,17.165037 L72.8267755,17.165037 C71.7590204,14.9084444 70.3542857,11.1688889 69.2865306,8.9682963 L69.2865306,8.9682963 C68.5557551,6.7117037 67.1510204,3.38696296 66.0832653,0 L66.0832653,0 L65.354449,0 Z M64.3983673,4.45511111 L66.5338776,10.4554074 L64.3983673,10.4554074 L61.9239184,10.4554074 L64.3983673,4.45511111 Z" id="path-9"></path>
        <path d="M83.4475102,0.356740741 L82.0427755,0.356740741 C80.3010612,4.09837037 79.9072653,5.22666667 78.165551,8.55348148 L78.165551,8.55348148 C76.0300408,4.81185185 75.3560816,2.97007407 73.9513469,0.356740741 L73.9513469,0.356740741 L72.2096327,0.356740741 L70.4679184,0.356740741 C71.5337143,2.61333333 73.6692245,5.94014815 74.6821224,8.19674074 L74.6821224,8.19674074 L76.0868571,10.8121481 L76.0868571,17.5217778 L77.4915918,17.5217778 L79.2333061,17.5217778 L79.2333061,11.9383704 L79.2333061,10.4554074 L78.8963265,10.4554074 C78.8963265,10.0986667 78.8963265,10.0986667 79.2333061,9.68177778 L79.2333061,9.68177778 C80.3010612,7.84 80.9750204,5.94014815 82.0427755,4.45511111 L82.0427755,4.45511111 C82.3797551,3.68355556 84.1782857,1.07022222 84.5152653,0.356740741 L84.5152653,0.356740741 L83.4475102,0.356740741 Z" id="path-11"></path>
        <path d="M85.8631837,4.872 C85.8631837,6.7117037 86.5939592,8.25688889 88.6726531,9.32503704 L88.6726531,9.32503704 C89.4053878,9.68177778 90.4143673,10.0986667 91.147102,10.4554074 L91.147102,10.4554074 C91.4840816,10.8121481 92.8888163,11.226963 92.8888163,13.4234074 L92.8888163,13.4234074 C92.8888163,15.2651852 91.8210612,16.3955556 89.685551,16.3955556 L89.685551,16.3955556 C88.3924898,16.3955556 87.381551,16.0388148 85.92,13.4234074 L85.92,13.4234074 C85.92,14.5517037 85.92,14.9084444 85.1892245,16.0388148 L85.1892245,16.0388148 C85.92,16.3955556 87.6617143,17.165037 89.4053878,17.165037 L89.4053878,17.165037 C93.6195918,17.165037 95.4181224,14.197037 95.4181224,11.9383704 L95.4181224,11.9383704 C95.4181224,11.1688889 95.4181224,9.68177778 94.3484082,8.55348148 L94.3484082,8.55348148 C93.6195918,7.77985185 92.9456327,7.42518519 91.147102,6.7117037 L91.147102,6.7117037 C89.0115918,5.94014815 87.9438367,5.22666667 87.9438367,3.74162963 L87.9438367,3.74162963 C87.9438367,2.25659259 89.0115918,1.1282963 90.7533061,1.1282963 L90.7533061,1.1282963 C92.1580408,1.1282963 93.5627755,1.89985185 93.9565714,3.38696296 L93.9565714,3.38696296 L94.293551,3.38696296 C94.6305306,2.25659259 94.6305306,2.25659259 95.0243265,1.1282963 L95.0243265,1.1282963 C93.9565714,0.77362963 92.8888163,0 91.147102,0 L91.147102,0 C86.9309388,0 85.8631837,2.61333333 85.8631837,4.872 L85.8631837,4.872 Z" id="path-13"></path>
        <path d="M0.0307998676,14.1404321 C-0.154206543,16.4813272 0.431971662,20.4145062 3.50307807,23.7535494 L3.50307807,23.7535494 C6.79424474,27.094573 10.8507537,27.6867284 14.1399729,27.6867284 L14.1399729,27.6867284 L15.4914935,27.6867284 L24.1906896,34.5529578 C25.3591511,33.7726595 27.0806845,32.7745113 28.4341524,32.2120628 L28.4341524,32.2120628 L19.7330088,26.718287 C24.9599268,24.753678 28.4341524,20.0382202 28.4341524,13.3601337 L28.4341524,13.3601337 C28.4341524,4.12132202 21.4857011,0 14.3249794,0 L14.3249794,0 C6.57807935,0 0.0307998676,4.30946502 0.0307998676,14.1404321 L0.0307998676,14.1404321 Z M5.07271141,14.5464249 C5.07271141,4.74516461 10.2976819,2.18641975 14.1711319,2.18641975 L14.1711319,2.18641975 C20.3483986,2.18641975 23.0553345,7.49205247 23.0553345,13.1719907 L23.0553345,13.1719907 C23.0553345,16.3248714 22.6541627,19.4460648 21.1176358,21.8186471 L21.1176358,21.8186471 C19.5811088,24.1595422 16.8741729,25.7518261 14.1711319,25.7518261 L14.1711319,25.7518261 C7.1934691,25.7201389 5.07271141,18.8539095 5.07271141,14.5464249 L5.07271141,14.5464249 Z" id="path-15"></path>
        <path d="M44.1110114,0.407973251 C43.7098396,0.407973251 43.3417742,0.407973251 42.7575435,0.219830247 L42.7575435,0.219830247 C41.8032999,3.37271091 39.6533306,8.46049383 35.8110396,17.2913323 L35.8110396,17.2913323 L31.3533588,27.3124228 C31.9375896,27.3124228 32.5218204,27.1242798 33.1041037,27.1242798 L33.1041037,27.1242798 C33.6883345,27.1242798 34.4575717,27.3124228 34.8587435,27.3124228 L34.8587435,27.3124228 C35.4410268,25.1576903 36.6094883,21.8186471 37.9610088,18.8836163 L37.9610088,18.8836163 C39.4994832,18.8836163 41.0671691,18.6974537 42.6056435,18.6974537 L42.6056435,18.6974537 C44.1402229,18.6974537 45.8929153,18.6974537 47.4294422,18.8836163 L47.4294422,18.8836163 L48.9679165,23.0049383 L50.5044435,27.094573 C51.2717332,27.094573 52.2551883,26.90643 53.3924909,26.90643 L53.3924909,26.90643 C54.5297935,26.90643 55.698255,27.094573 56.2824858,27.094573 L56.2824858,27.094573 C54.5297935,23.3792438 52.0409704,17.4814558 50.6875024,14.1404321 L50.6875024,14.1404321 C49.3340345,10.8013889 47.0302178,5.49575617 45.2775255,0.219830247 L45.2775255,0.219830247 C44.8783011,0.407973251 44.5102358,0.407973251 44.1110114,0.407973251 L44.1110114,0.407973251 Z M38.699087,16.3248714 L42.572537,6.71175412 L46.2317691,16.3248714 C45.0633076,16.3248714 43.926005,16.5130144 42.7575435,16.5130144 L42.7575435,16.5130144 C41.4040755,16.5130144 40.052555,16.3248714 38.699087,16.3248714 L38.699087,16.3248714 Z" id="path-17"></path>
        <path d="M64.9816819,0.84367284 C62.091687,0.84367284 57.8190127,0.84367284 54.7459588,0.657510288 L54.7459588,0.657510288 C54.9290178,1.06350309 54.9290178,1.62397119 54.9290178,2.03194444 L54.9290178,2.03194444 C54.9290178,2.43595679 54.9290178,2.9964249 54.7459588,3.40439815 L54.7459588,3.40439815 C56.6817101,3.21625514 60.3409422,3.21625514 60.7401665,3.21625514 L60.7401665,3.21625514 L62.6759178,3.21625514 L62.6759178,7.52175926 L62.6759178,18.3231481 C62.6759178,21.2561986 62.4928588,24.2229167 62.2766935,27.1559671 L62.2766935,27.1559671 C63.6301614,26.9678241 64.2143922,26.9678241 64.7966755,26.9678241 L64.7966755,26.9678241 C65.1978473,26.9678241 66.5493678,27.1559671 67.501664,27.1559671 L67.501664,27.1559671 L67.501664,21.8503344 L67.501664,7.49205247 L67.501664,3.1845679 C70.2066524,3.1845679 72.9116409,3.1845679 75.0323986,3.37271091 L75.0323986,3.37271091 C74.8493396,2.78055556 74.8493396,2.40625 74.8493396,1.99827675 L74.8493396,1.99827675 C74.8493396,1.59228395 74.8493396,1.2179784 75.0323986,0.439660494 L75.0323986,0.439660494 C71.375114,0.84367284 68.0858947,0.84367284 64.9816819,0.84367284 L64.9816819,0.84367284 Z" id="path-19"></path>
        <path d="M86.6215896,0.407973251 C86.2223653,0.407973251 85.8523524,0.407973251 85.2681217,0.219830247 L85.2681217,0.219830247 C84.3158255,3.37271091 82.1639088,8.46049383 78.3235653,17.2913323 L78.3235653,17.2913323 L73.863937,27.3124228 C74.4501153,27.3124228 75.0323986,27.1242798 75.6166294,27.1242798 L75.6166294,27.1242798 C76.2008601,27.1242798 76.9700973,27.3124228 77.3693217,27.3124228 L77.3693217,27.3124228 C77.9535524,25.1576903 79.122014,21.8186471 80.4735345,18.8836163 L80.4735345,18.8836163 C82.0100614,18.8836163 83.5777473,18.6974537 85.1162217,18.6974537 L85.1162217,18.6974537 C86.6508011,18.6974537 88.4034935,18.6974537 89.9419678,18.8836163 L89.9419678,18.8836163 L91.4784947,23.0049383 L93.0150217,27.094573 C93.7842588,27.094573 94.7657665,26.90643 95.9050165,26.90643 L95.9050165,26.90643 C97.0423191,26.90643 98.2088332,27.094573 98.7950114,27.094573 L98.7950114,27.094573 C97.0423191,23.3792438 94.553496,17.4814558 93.2000281,14.1404321 L93.2000281,14.1404321 C91.8465601,10.8013889 89.540796,5.49575617 87.7881037,0.219830247 L87.7881037,0.219830247 C87.3888794,0.407973251 87.020814,0.407973251 86.6215896,0.407973251 L86.6215896,0.407973251 Z M81.2408242,16.3248714 L85.1162217,6.71175412 L88.7715588,16.3248714 C87.6050447,16.3248714 86.4677422,16.5130144 85.2992806,16.5130144 L85.2992806,16.5130144 C83.9477601,16.5130144 82.5942922,16.3248714 81.2408242,16.3248714 L81.2408242,16.3248714 Z" id="path-21"></path>
        <path d="M106.72497,0.594135802 C104.789219,0.594135802 103.834976,0.407973251 102.85152,0.407973251 L102.85152,0.407973251 C103.036527,5.30761317 103.036527,5.89976852 103.036527,11.0192387 L103.036527,11.0192387 C103.036527,18.4796039 103.036527,19.2579218 102.635355,26.90643 L102.635355,26.90643 C103.404592,26.718287 104.388047,26.718287 105.340343,26.718287 L105.340343,26.718287 C106.294587,26.718287 107.093036,26.90643 107.862273,26.90643 L107.862273,26.90643 C107.862273,25.9379887 107.677267,20.820499 107.677267,19.8540381 L107.677267,19.8540381 L107.677267,14.5464249 L108.629563,14.5464249 C110.75032,17.4814558 113.087243,20.820499 115.024942,23.9733796 L115.024942,23.9733796 C115.607226,24.9398405 116.376463,26.3122942 116.960693,27.1242798 L116.960693,27.1242798 C118.127208,26.9361368 118.49722,26.9361368 120.064906,26.9361368 L120.064906,26.9361368 C121.416427,26.9361368 122.37067,27.1242798 123.539132,27.1242798 L123.539132,27.1242798 C121.233368,23.9733796 120.064906,22.5989455 117.1457,18.4796039 L117.1457,18.4796039 C116.561469,17.6993056 115.792232,16.3248714 115.208001,15.544573 L115.208001,15.544573 L114.286864,13.9542695 C117.759142,13.3601337 120.863355,11.0192387 120.863355,6.68204733 L120.863355,6.68204733 C120.863355,5.11947016 120.281072,3.52916667 119.110663,2.3725823 L119.110663,2.3725823 C117.576083,0.813966049 115.638384,0.407973251 113.116455,0.407973251 L113.116455,0.407973251 C112.166106,0.407973251 107.891484,0.594135802 106.72497,0.594135802 L106.72497,0.594135802 Z M107.677267,12.5798354 L107.677267,2.56072531 L107.891484,2.56072531 C108.475715,2.56072531 109.829183,2.3725823 110.59842,2.3725823 L110.59842,2.3725823 C111.949941,2.3725823 113.116455,2.56072531 114.070699,3.34102366 L114.070699,3.34102366 C115.424167,4.30946502 115.607226,5.68191872 115.607226,7.46234568 L115.607226,7.46234568 C115.607226,10.0210905 114.255705,12.7659979 110.380308,12.7659979 L110.380308,12.7659979 C109.429959,12.7659979 108.446504,12.7659979 107.677267,12.5798354 L107.677267,12.5798354 Z" id="path-23"></path>
    </defs>
    <g id="Page-1" stroke="none" stroke-width="1" fill="none" fill-rule="evenodd" opacity="1">
        <g id="Footer-con-sponsors-Siempre-desplegados/1440" transform="translate(-753.000000, -329.000000)">
            <g id="Group-4" transform="translate(577.000000, 239.000000)">
                <g id="Group-37" transform="translate(176.000000, 90.000000)">
                    <g id="Group" transform="translate(30.000000, 35.000000)">
                        <mask id="mask-2" fill="white">
                            <use xlink:href="#path-1"></use>
                        </mask>
                        <use id="Clip-2" fill="#FFFFFF" xlink:href="#path-1"></use>
                        <mask id="mask-4" fill="white">
                            <use xlink:href="#path-3"></use>
                        </mask>
                        <use id="Clip-5" fill="#FFFFFF" xlink:href="#path-3"></use>
                        <mask id="mask-6" fill="white">
                            <use xlink:href="#path-5"></use>
                        </mask>
                        <use id="Clip-8" fill="#FFFFFF" xlink:href="#path-5"></use>
                        <mask id="mask-8" fill="white">
                            <use xlink:href="#path-7"></use>
                        </mask>
                        <use id="Clip-11" fill="#FFFFFF" xlink:href="#path-7"></use>
                        <mask id="mask-10" fill="white">
                            <use xlink:href="#path-9"></use>
                        </mask>
                        <use id="Clip-14" fill="#FFFFFF" xlink:href="#path-9"></use>
                        <mask id="mask-12" fill="white">
                            <use xlink:href="#path-11"></use>
                        </mask>
                        <use id="Clip-17" fill="#FFFFFF" xlink:href="#path-11"></use>
                        <mask id="mask-14" fill="white">
                            <use xlink:href="#path-13"></use>
                        </mask>
                        <use id="Clip-20" fill="#FFFFFF" xlink:href="#path-13"></use>
                    </g>
                    <g id="Qatar">
                        <mask id="mask-16" fill="white">
                            <use xlink:href="#path-15"></use>
                        </mask>
                        <use id="Clip-23" fill="#FFFFFF" xlink:href="#path-15"></use>
                        <mask id="mask-18" fill="white">
                            <use xlink:href="#path-17"></use>
                        </mask>
                        <use id="Clip-26" fill="#FFFFFF" xlink:href="#path-17"></use>
                        <mask id="mask-20" fill="white">
                            <use xlink:href="#path-19"></use>
                        </mask>
                        <use id="Clip-29" fill="#FFFFFF" xlink:href="#path-19"></use>
                        <mask id="mask-22" fill="white">
                            <use xlink:href="#path-21"></use>
                        </mask>
                        <use id="Clip-32" fill="#FFFFFF" xlink:href="#path-21"></use>
                        <mask id="mask-24" fill="white">
                            <use xlink:href="#path-23"></use>
                        </mask>
                        <use id="Clip-35" fill="#FFFFFF" xlink:href="#path-23"></use>
                    </g>
                </g>
            </g>
        </g>
    </g>
</svg>