<?xml version="1.0" encoding="UTF-8"?>
<svg width="27px" height="30px" viewBox="0 0 27 30" version="1.1" xmlns="http://www.w3.org/2000/svg" xmlns:xlink="http://www.w3.org/1999/xlink">
    <!-- Generator: Sketch 62 (91390) - https://sketch.com -->
    <title>tik-tok</title>
    <desc>Created with Sketch.</desc>
    <g id="Page-1" stroke="none" stroke-width="1" fill="none" fill-rule="evenodd">
        <g id="tik-tok" transform="translate(0.000000, -0.000000)" fill="#FFFFFF" fill-rule="nonzero">
            <path d="M25.3555298,6.58973695 C22.2065735,6.58973695 19.6446991,4.02786258 19.6446991,0.87890625 C19.6446991,0.393447891 19.2510223,0 18.7657928,0 L14.058609,0 C13.5731507,0 13.1797028,0.393447891 13.1797028,0.87890625 L13.1797028,20.1777649 C13.1797028,22.0289612 11.6736603,23.5350036 9.82223508,23.5350036 C7.97103879,23.5350036 6.46499637,22.0289612 6.46499637,20.1777649 C6.46499637,18.3263397 7.97103879,16.8202972 9.82223508,16.8202972 C10.3076935,16.8202972 10.7011413,16.4268493 10.7011413,15.941391 L10.7011413,11.2342072 C10.7011413,10.7489777 10.3076935,10.3553009 9.82223508,10.3553009 C4.40620424,10.3553009 1.66533454e-15,14.761734 1.66533454e-15,20.1777649 C1.66533454e-15,25.5937958 4.40620424,30 9.82223508,30 C15.238266,30 19.6446991,25.5937958 19.6446991,20.1777649 L19.6446991,11.6352081 C21.394043,12.5679016 23.3404541,13.0547333 25.3555298,13.0547333 C25.8409881,13.0547333 26.234436,12.6612854 26.234436,12.175827 L26.234436,7.4686432 C26.234436,6.98341371 25.8409881,6.58973695 25.3555298,6.58973695 Z M24.4766235,11.2605286 C22.6002503,11.1044312 20.8184051,10.4489136 19.2789459,9.34158328 C19.0113831,9.14886475 18.6584473,9.12231445 18.3647919,9.27291867 C18.0713654,9.42306516 17.8868866,9.72518918 17.8868866,10.0550079 L17.8868866,20.1777649 C17.8868866,24.6244812 14.2689514,28.2421875 9.82223508,28.2421875 C5.37551883,28.2421875 1.7578125,24.6244812 1.7578125,20.1777649 C1.7578125,16.0279083 4.90859988,12.599945 8.94332883,12.1607208 L8.94332883,15.1380158 C6.54006961,15.555954 4.70718387,17.6566315 4.70718387,20.1777649 C4.70718387,22.9982757 7.00172426,25.2930451 9.82223508,25.2930451 C12.6429749,25.2930451 14.9375153,22.9982757 14.9375153,20.1777649 L14.9375153,1.7578125 L17.9381561,1.7578125 C18.3407593,5.17501828 21.0594177,7.89367676 24.4766235,8.29627992 L24.4766235,11.2605286 Z" id="Shape"></path>
        </g>
    </g>
</svg>